<svg version="1.1" xmlns="http://www.w3.org/2000/svg" viewBox="0 0 904 1642.5" width="904" height="1642.5">
  <!-- svg-source:excalidraw -->
  
  <defs>
    <style>
      @font-face {
        font-family: "Virgil";
        src: url("https://excalidraw.com/FG_Virgil.woff2");
      }
      @font-face {
        font-family: "Cascadia";
        src: url("https://excalidraw.com/Cascadia.woff2");
      }
    </style>
  </defs>
  <g transform="translate(294 374.5) rotate(0 181 39)"><path d="M0 0 C95.83723749406636 0, 191.67447498813272 0, 362 0 M0 0 C105.81393852345647 0, 211.62787704691294 0, 362 0 M362 0 C362 18.540146869048474, 362 37.08029373809695, 362 77.99999999999999 M362 0 C362 17.004512727633116, 362 34.00902545526623, 362 77.99999999999999 M362 77.99999999999999 C243.64617770425974 77.99999999999999, 125.29235540851948 77.99999999999999, 0 77.99999999999999 M362 77.99999999999999 C252.34757311232386 77.99999999999999, 142.69514622464771 77.99999999999999, 0 77.99999999999999 M0 77.99999999999999 C0 47.78223140873014, 0 17.564462817460296, 0 0 M0 77.99999999999999 C0 54.493158661946644, 0 30.986317323893303, 0 0" stroke="#000000" stroke-width="1" fill="none"></path></g><g transform="translate(323 402) rotate(0 154.5 9.5)"><text x="0" y="15" font-family="Cascadia, Segoe UI Emoji" font-size="16px" fill="#000000" text-anchor="start" style="white-space: pre;" direction="ltr">exchangeClientTokenForServerToken</text></g><g transform="translate(383.5000000000001 517.4999999999992) rotate(0 79.5 9.5)"><text x="79.5" y="15" font-family="Cascadia, Segoe UI Emoji" font-size="16px" fill="#000000" text-anchor="middle" style="white-space: pre;" direction="ltr">consent_required?</text></g><g transform="translate(70 85.5) rotate(0 378 358.5)"><path d="M0 0 C297.5626571573317 0, 595.1253143146635 0, 756 0 M756 0 C756 157.094428463839, 756 314.188856927678, 756 717 M756 717 C571.8690072856843 717, 387.7380145713687 717, 0 717 M0 717 C0 461.7065850595012, 0 206.41317011900242, 0 0" stroke="#000000" stroke-width="2.5" fill="none" stroke-dasharray="3 6"></path></g><g transform="translate(119 117) rotate(0 33 9.5)"><text x="0" y="15" font-family="Cascadia, Segoe UI Emoji" font-size="16px" fill="#000000" text-anchor="start" style="white-space: pre;" direction="ltr">Tab.tsx</text></g><g transform="translate(413.42690908688064 413.7128347971816) rotate(89.65895772114116 43.98194830904487 111.9752077183187)"><path d="M44 0 C59.82898991909391 40.325062319636345, 75.65797983818781 80.65012463927269, 87.96389661808972 112 M44 0 C58.24088985727435 36.2793061286211, 72.4817797145487 72.5586122572422, 87.96389661808972 112 M87.96389661808972 112 C71.65418234031226 153.5313343335166, 55.344468062534794 195.0626686670332, 44 223.9504154366374 M87.96389661808972 112 C72.2839708904269 151.92763003871664, 56.60404516276408 191.85526007743326, 44 223.9504154366374 M44 223.9504154366374 C29.07766154780984 185.98309750461928, 14.155323095619678 148.01577957260116, 0 112 M44 223.9504154366374 C30.506173183768986 189.61769912056695, 17.012346367537972 155.28498280449648, 0 112 M0 112 C14.279304447025062 75.65267958939074, 28.558608894050124 39.3053591787815, 44 0 M0 112 C11.749237606674434 82.09284972846507, 23.49847521334887 52.18569945693015, 44 0" stroke="#000000" stroke-width="2" fill="none"></path></g><g transform="translate(309 155.5) rotate(0 168.5 35)"><path d="M0 0 C120.42611922193319 0, 240.85223844386638 0, 337 0 M0 0 C120.42932896148415 0, 240.8586579229683 0, 337 0 M337 0 C337 22.800063220784068, 337 45.600126441568136, 337 70 M337 0 C337 15.61622220464051, 337 31.23244440928102, 337 70 M337 70 C248.1794699175283 70, 159.35893983505665 70, 0 70 M337 70 C205.6836321996525 70, 74.36726439930499 70, 0 70 M0 70 C0 55.109839947894216, 0 40.21967989578843, 0 0 M0 70 C0 45.7517352681607, 0 21.5034705363214, 0 0" stroke="#000000" stroke-width="2" fill="none"></path></g><g transform="translate(352.5 182.5) rotate(0 122 9.5)"><text x="122" y="15" font-family="Cascadia, Segoe UI Emoji" font-size="16px" fill="#000000" text-anchor="middle" style="white-space: pre;" direction="ltr">microsoft.teams.getContext</text></g><g transform="translate(66 854.5) rotate(0 380.5 173)"><path d="M0 0 C214.04730614144356 0, 428.0946122828871 0, 761 0 M761 0 C761 110.95759278945624, 761 221.91518557891249, 761 345.99999999999994 M761 345.99999999999994 C590.7379164544866 345.99999999999994, 420.4758329089731 345.99999999999994, 0 345.99999999999994 M0 345.99999999999994 C0 216.39163045473393, 0 86.78326090946791, 0 0" stroke="#000000" stroke-width="2.5" fill="none" stroke-dasharray="3 6"></path></g><g transform="translate(89 879) rotate(0 61 9.5)"><text x="0" y="15" font-family="Cascadia, Segoe UI Emoji" font-size="16px" fill="#000000" text-anchor="start" style="white-space: pre;" direction="ltr">authStart.tsx</text></g><g transform="translate(270 888.5) rotate(0 175.5 40)"><path d="M0 0 C107.46291570235044 0, 214.9258314047009 0, 351 0 M0 0 C94.98642925154418 0, 189.97285850308836 0, 351 0 M351 0 C351 27.91960941255093, 351 55.83921882510186, 351 80 M351 0 C351 27.671124354004863, 351 55.34224870800973, 351 80 M351 80 C239.6862933559343 80, 128.37258671186862 80, 0 80 M351 80 C221.2267657505348 80, 91.45353150106962 80, 0 80 M0 80 C0 52.88292373716831, 0 25.765847474336624, 0 0 M0 80 C0 49.76839266717434, 0 19.53678533434868, 0 0" stroke="#000000" stroke-width="2" fill="none"></path></g><g transform="translate(322.5 924.5) rotate(0 122 9.5)"><text x="122" y="15" font-family="Cascadia, Segoe UI Emoji" font-size="16px" fill="#000000" text-anchor="middle" style="white-space: pre;" direction="ltr">microsoft.teams.getContext</text></g><g transform="translate(290 702.5) rotate(0 175 39)"><path d="M0 0 C114.0176938381046 0, 228.0353876762092 0, 350 0 M0 0 C111.38458938337864 0, 222.76917876675728 0, 350 0 M350 0 C350 29.90544065795839, 350 59.81088131591678, 350 78 M350 0 C350 20.63145068921149, 350 41.26290137842298, 350 78 M350 78 C269.48388651944697 78, 188.96777303889394 78, 0 78 M350 78 C271.38777702115476 78, 192.77555404230952 78, 0 78 M0 78 C0 48.48327673114836, 0 18.966553462296716, 0 0 M0 78 C0 56.932596432790156, 0 35.86519286558031, 0 0" stroke="#000000" stroke-width="2" fill="none"></path></g><g transform="translate(399.5 732) rotate(0 65.5 9.5)"><text x="65.5" y="15" font-family="Cascadia, Segoe UI Emoji" font-size="16px" fill="#000000" text-anchor="middle" style="white-space: pre;" direction="ltr">render content</text></g><g transform="translate(48 1434.5) rotate(0 384 99)"><path d="M0 0 C233.26525139808655 0, 466.5305027961731 0, 768 0 M768 0 C768 41.45589923076332, 768 82.91179846152664, 768 198 M768 198 C545.0276059627533 198, 322.05521192550657 198, 0 198 M0 198 C0 138.0019032675773, 0 78.00380653515458, 0 0" stroke="#000000" stroke-width="2.5" fill="none" stroke-dasharray="3 6"></path></g><g transform="translate(71 1460) rotate(0 51.5 9.5)"><text x="0" y="15" font-family="Cascadia, Segoe UI Emoji" font-size="16px" fill="#000000" text-anchor="start" style="white-space: pre;" direction="ltr">authEnd.tsx</text></g><g transform="translate(262 1056.5) rotate(0 187.890625 40)"><path d="M0 0 C133.1112060220039 0, 266.2224120440078 0, 375.78125 0 M0 0 C94.31117255109713 0, 188.62234510219426 0, 375.78125 0 M375.78125 0 C375.78125 17.793073549866676, 375.78125 35.58614709973335, 375.78125 80 M375.78125 0 C375.78125 31.634240016341213, 375.78125 63.268480032682426, 375.78125 80 M375.78125 80 C227.66440957886516 80, 79.54756915773032 80, 0 80 M375.78125 80 C258.3099269228114 80, 140.83860384562286 80, 0 80 M0 80 C0 51.17543517053127, 0 22.35087034106254, 0 0 M0 80 C0 60.325367107987404, 0 40.65073421597481, 0 0" stroke="#000000" stroke-width="2" fill="none"></path></g><g transform="translate(372 1087) rotate(0 89 9.5)"><text x="89" y="15" font-family="Cascadia, Segoe UI Emoji" font-size="16px" fill="#000000" text-anchor="middle" style="white-space: pre;" direction="ltr">redirect to consent</text></g><g transform="translate(313 1243.5) rotate(0 127.5 60)"><path d="M128 0 C155.6741804080084 13.292322873137891, 183.3483608160168 26.584645746275783, 255 61 M128 0 C175.57966436278076 22.853224615193906, 223.15932872556152 45.70644923038781, 255 61 M255 61 C225.02859804462642 74.92372216824442, 195.05719608925284 88.84744433648885, 128 120 M255 61 C228.57618078459055 73.27563254889101, 202.1523615691811 85.55126509778202, 128 120 M128 120 C80.87028601169587 98.27614745851606, 33.74057202339172 76.55229491703213, 0 61 M128 120 C93.17997453212737 103.95014451090246, 58.35994906425475 87.90028902180492, 0 61 M0 61 C47.967631316185 38.140425700880584, 95.93526263237 15.280851401761176, 128 0 M0 61 C44.62264769077301 39.73451945986599, 89.24529538154601 18.46903891973198, 128 0" stroke="#000000" stroke-width="2" fill="none"></path></g><g transform="translate(375 1294) rotate(0 65.5 9.5)"><text x="65.5" y="15" font-family="Cascadia, Segoe UI Emoji" font-size="16px" fill="#000000" text-anchor="middle" style="white-space: pre;" direction="ltr">user consents?</text></g><g><g transform="translate(567 1303.5) rotate(0 42.5 0.5)"><path d="M0 0 C14.166666666666666 0.16666666666666666, 70.83333333333333 0.8333333333333334, 85 1 M0 0 C14.166666666666666 0.16666666666666666, 70.83333333333333 0.8333333333333334, 85 1" stroke="#000000" stroke-width="2" fill="none"></path></g><g transform="translate(567 1303.5) rotate(0 42.5 0.5)"><path d="M56.69046745407562 10.928261027554075 C65.48448899958468 7.844164133897733, 74.27851054509375 4.76006724024139, 85 1 M56.69046745407562 10.928261027554075 C64.8245074210176 8.075622190464426, 72.95854738795958 5.222983353374778, 85 1" stroke="#000000" stroke-width="2" fill="none"></path></g><g transform="translate(567 1303.5) rotate(0 42.5 0.5)"><path d="M56.93187673165327 -9.591527566545501 C65.65090733957409 -6.3013947652017475, 74.36993794749492 -3.0112619638579945, 85 1 M56.93187673165327 -9.591527566545501 C64.99655374782868 -6.548315588478001, 73.06123076400411 -3.5051036104105, 85 1" stroke="#000000" stroke-width="2" fill="none"></path></g></g><g><g transform="translate(10 531.5) rotate(0 0 199)"><path d="M0 0 C0 66.33333333333333, 0 331.6666666666667, 0 398 M0 0 C0 66.33333333333333, 0 331.6666666666667, 0 398" stroke="#000000" stroke-width="2" fill="none"></path></g></g><g transform="translate(318 1478.5) rotate(0 121 42)"><path d="M122 0 C168.11344984918833 16.52398619595915, 214.22689969837666 33.0479723919183, 242 43 M122 0 C160.96455677598715 13.962299511395397, 199.9291135519743 27.924599022790794, 242 43 M242 43 C203.99853225797415 55.983834811858834, 165.9970645159483 68.96766962371767, 122 84 M242 43 C212.33211056143045 53.13652889151126, 182.6642211228609 63.27305778302252, 122 84 M122 84 C79.55534829087554 69.7358137698844, 37.1106965817511 55.47162753976882, 0 43 M122 84 C80.57775354795157 70.07940897922963, 39.15550709590316 56.15881795845925, 0 43 M0 43 C38.28022365383804 29.507790023647246, 76.56044730767609 16.015580047294495, 122 0 M0 43 C47.11494389362633 26.393913217820227, 94.22988778725266 9.787826435640454, 122 0" stroke="#000000" stroke-width="2" fill="none"></path></g><g transform="translate(387.5 1511) rotate(0 51.5 9.5)"><text x="51.5" y="15" font-family="Cascadia, Segoe UI Emoji" font-size="16px" fill="#000000" text-anchor="middle" style="white-space: pre;" direction="ltr">token rec'd</text></g><g><g transform="translate(442 1606.5) rotate(0 224 1.5)"><path d="M0 0 C74.66666666666667 0.5, 373.3333333333333 2.5, 448 3 M0 0 C74.66666666666667 0.5, 373.3333333333333 2.5, 448 3" stroke="#000000" stroke-width="2" fill="none"></path></g></g><g><g transform="translate(891 1607.5) rotate(0 0 -488.5)"><path d="M0 0 C0 -162.83333333333334, 0 -814.1666666666666, 0 -977 M0 0 C0 -162.83333333333334, 0 -814.1666666666666, 0 -977" stroke="#000000" stroke-width="2" fill="none"></path></g></g><g><g transform="translate(440 1563.5) rotate(0 0 20)"><path d="M0 0 C0 6.666666666666667, 0 33.333333333333336, 0 40 M0 0 C0 6.666666666666667, 0 33.333333333333336, 0 40" stroke="#000000" stroke-width="2" fill="none"></path></g></g><g transform="translate(122 1231) rotate(0 94 9.5)"><text x="0" y="15" font-family="Cascadia, Segoe UI Emoji" font-size="16px" fill="#000000" text-anchor="start" style="white-space: pre;" direction="ltr">Consent Popup (MSFT)</text></g><g><g transform="translate(346 527.5) rotate(0 -168 0)"><path d="M0 0 C-56 0, -280 0, -336 0 M0 0 C-56 0, -280 0, -336 0" stroke="#000000" stroke-width="2" fill="none"></path></g></g><g><g transform="translate(12 930.8622193461256) rotate(0 128.5 0)"><path d="M0 0 C42.833333333333336 0, 214.16666666666666 0, 257 0 M0 0 C42.833333333333336 0, 214.16666666666666 0, 257 0" stroke="#000000" stroke-width="2" fill="none"></path></g><g transform="translate(12 930.8622193461256) rotate(0 128.5 0)"><path d="M228.80922137642276 10.260604299770062 C239.56728080561467 6.344990889077356, 250.32534023480656 2.42937747838465, 257 0 M228.80922137642276 10.260604299770062 C239.70117762421447 6.2962564326440855, 250.59313387200618 2.33190856551811, 257 0" stroke="#000000" stroke-width="2" fill="none"></path></g><g transform="translate(12 930.8622193461256) rotate(0 128.5 0)"><path d="M228.80922137642276 -10.260604299770062 C239.56728080561467 -6.344990889077356, 250.32534023480656 -2.42937747838465, 257 0 M228.80922137642276 -10.260604299770062 C239.70117762421447 -6.2962564326440855, 250.59313387200618 -2.33190856551811, 257 0" stroke="#000000" stroke-width="2" fill="none"></path></g></g><g><g transform="translate(894 629.5) rotate(0 -120.5 0)"><path d="M0 0 C-40.166666666666664 0, -200.83333333333334 0, -241 0 M0 0 C-40.166666666666664 0, -200.83333333333334 0, -241 0" stroke="#000000" stroke-width="2" fill="none"></path></g><g transform="translate(894 629.5) rotate(0 -120.5 0)"><path d="M-212.80922137642276 -10.260604299770062 C-220.01386638059452 -7.638327969796839, -227.2185113847663 -5.016051639823616, -241 0 M-212.80922137642276 -10.260604299770062 C-222.12495684275734 -6.869953879726287, -231.44069230909196 -3.4793034596825123, -241 0" stroke="#000000" stroke-width="2" fill="none"></path></g><g transform="translate(894 629.5) rotate(0 -120.5 0)"><path d="M-212.80922137642276 10.260604299770062 C-220.01386638059452 7.638327969796839, -227.2185113847663 5.016051639823616, -241 0 M-212.80922137642276 10.260604299770062 C-222.12495684275734 6.869953879726287, -231.44069230909196 3.4793034596825123, -241 0" stroke="#000000" stroke-width="2" fill="none"></path></g></g><g transform="translate(292 597.5) rotate(0 177 36)"><path d="M0 0 C123.7345982696861 0, 247.4691965393722 0, 354 0 M0 0 C133.19529487229883 0, 266.39058974459766 0, 354 0 M354 0 C354 21.639652799069882, 354 43.279305598139764, 354 72 M354 0 C354 28.606289054453374, 354 57.21257810890675, 354 72 M354 72 C246.46907521225512 72, 138.93815042451024 72, 0 72 M354 72 C219.83296790979801 72, 85.66593581959603 72, 0 72 M0 72 C0 57.24505074173212, 0 42.490101483464244, 0 0 M0 72 C0 55.86459669917822, 0 39.729193398356436, 0 0" stroke="#000000" stroke-width="2" fill="none"></path></g><g transform="translate(380 624) rotate(0 89 9.5)"><text x="89" y="15" font-family="Cascadia, Segoe UI Emoji" font-size="16px" fill="#000000" text-anchor="middle" style="white-space: pre;" direction="ltr">callGraphFromClient</text></g><g transform="translate(263 10) rotate(0 229.5 17)"><text x="0" y="27" font-family="Cascadia, Segoe UI Emoji" font-size="28px" fill="#000000" text-anchor="start" style="white-space: pre;" direction="ltr">Microsoft Teams Tab Overview</text></g><g><g transform="translate(460 452.5) rotate(0 0 13.5)"><path d="M0 0 C0 4.5, 0 22.5, 0 27 M0 0 C0 4.5, 0 22.5, 0 27" stroke="#000000" stroke-width="2" fill="none"></path></g><g transform="translate(460 452.5) rotate(0 0 13.5)"><path d="M-4.617271934896528 14.314149619390236 C-3.5088519995971437 17.359508362898648, -2.400432064297759 20.40486710640706, 0 27 M-4.617271934896528 14.314149619390236 C-3.3925177315139647 17.67913413756596, -2.167763528131402 21.044118655741688, 0 27" stroke="#000000" stroke-width="2" fill="none"></path></g><g transform="translate(460 452.5) rotate(0 0 13.5)"><path d="M4.617271934896528 14.314149619390236 C3.5088519995971437 17.359508362898648, 2.400432064297759 20.40486710640706, 0 27 M4.617271934896528 14.314149619390236 C3.3925177315139647 17.67913413756596, 2.167763528131402 21.044118655741688, 0 27" stroke="#000000" stroke-width="2" fill="none"></path></g></g><g><g transform="translate(443 970.9615384615386) rotate(0 0 36)"><path d="M0 0 C0 12, 0 60, 0 72 M0 0 C0 12, 0 60, 0 72" stroke="#000000" stroke-width="2" fill="none"></path></g><g transform="translate(443 970.9615384615386) rotate(0 0 36)"><path d="M-10.260604299770062 43.80922137642275 C-8.13436091784064 49.651027056538666, -6.008117535911219 55.49283273665458, 0 72 M-10.260604299770062 43.80922137642275 C-7.927121942897336 50.220411460626316, -5.59363958602461 56.631601544829884, 0 72" stroke="#000000" stroke-width="2" fill="none"></path></g><g transform="translate(443 970.9615384615386) rotate(0 0 36)"><path d="M10.260604299770062 43.80922137642275 C8.13436091784064 49.651027056538666, 6.008117535911219 55.49283273665458, 0 72 M10.260604299770062 43.80922137642275 C7.927121942897336 50.220411460626316, 5.59363958602461 56.631601544829884, 0 72" stroke="#000000" stroke-width="2" fill="none"></path></g></g><g><g transform="translate(444 1147.5) rotate(0 0 42.5)"><path d="M0 0 C0 14.166666666666666, 0 70.83333333333333, 0 85 M0 0 C0 14.166666666666666, 0 70.83333333333333, 0 85" stroke="#000000" stroke-width="2" fill="none"></path></g><g transform="translate(444 1147.5) rotate(0 0 42.5)"><path d="M-10.260604299770062 56.80922137642275 C-7.0909235522570215 65.51784765709488, -3.921242804743981 74.226473937767, 0 85 M-10.260604299770062 56.80922137642275 C-6.622739186657615 66.80417362972094, -2.984874073545167 76.79912588301912, 0 85" stroke="#000000" stroke-width="2" fill="none"></path></g><g transform="translate(444 1147.5) rotate(0 0 42.5)"><path d="M10.260604299770062 56.80922137642275 C7.0909235522570215 65.51784765709488, 3.921242804743981 74.226473937767, 0 85 M10.260604299770062 56.80922137642275 C6.622739186657615 66.80417362972094, 2.984874073545167 76.79912588301912, 0 85" stroke="#000000" stroke-width="2" fill="none"></path></g></g><g transform="translate(675 1294) rotate(0 70.5 12)"><text x="0" y="19" font-family="Cascadia, Segoe UI Emoji" font-size="20px" fill="#000000" text-anchor="start" style="white-space: pre;" direction="ltr">Consent Fail</text></g><g><g transform="translate(441 1365.5) rotate(0 0.5 55.5)"><path d="M0 0 C0.16666666666666666 18.5, 0.8333333333333334 92.5, 1 111 M0 0 C0.16666666666666666 18.5, 0.8333333333333334 92.5, 1 111" stroke="#000000" stroke-width="2" fill="none"></path></g><g transform="translate(441 1365.5) rotate(0 0.5 55.5)"><path d="M-9.514148611074031 82.90279944577662 C-7.171100929678012 89.16417952014169, -4.828053248281992 95.42555959450675, 1 111 M-9.514148611074031 82.90279944577662 C-5.66515870588087 93.18854347487364, -1.8161688006877101 103.47428750397066, 1 111" stroke="#000000" stroke-width="2" fill="none"></path></g><g transform="translate(441 1365.5) rotate(0 0.5 55.5)"><path d="M11.006227265492168 82.71793119463639 C8.77636839044835 89.02050862536578, 6.546509515404533 95.32308605609516, 1 111 M11.006227265492168 82.71793119463639 C7.343175775675563 93.0713512723371, 3.680124285858958 103.42477135003782, 1 111" stroke="#000000" stroke-width="2" fill="none"></path></g></g><g><g transform="translate(560 1522.5) rotate(0 75 0)"><path d="M0 0 C25 0, 125 0, 150 0 M0 0 C25 0, 125 0, 150 0" stroke="#000000" stroke-width="2" fill="none"></path></g></g><g><g transform="translate(710 1520.5) rotate(0 0 -89.5)"><path d="M0 0 C0 -29.833333333333332, 0 -149.16666666666666, 0 -179 M0 0 C0 -29.833333333333332, 0 -149.16666666666666, 0 -179" stroke="#000000" stroke-width="2" fill="none"></path></g><g transform="translate(710 1520.5) rotate(0 0 -89.5)"><path d="M10.260604299770062 -150.80922137642276 C8.023896235036734 -156.95452627818963, 5.787188170303404 -163.09983117995648, 0 -179 M10.260604299770062 -150.80922137642276 C7.0614536032928985 -159.59881567642628, 3.862302906815735 -168.3884099764298, 0 -179" stroke="#000000" stroke-width="2" fill="none"></path></g><g transform="translate(710 1520.5) rotate(0 0 -89.5)"><path d="M-10.260604299770062 -150.80922137642276 C-8.023896235036734 -156.95452627818963, -5.787188170303404 -163.09983117995648, 0 -179 M-10.260604299770062 -150.80922137642276 C-7.0614536032928985 -159.59881567642628, -3.862302906815735 -168.3884099764298, 0 -179" stroke="#000000" stroke-width="2" fill="none"></path></g></g><g transform="translate(236 488) rotate(0 17.5 12)"><text x="0" y="19" font-family="Cascadia, Segoe UI Emoji" font-size="20px" fill="#000000" text-anchor="start" style="white-space: pre;" direction="ltr">yes</text></g><g transform="translate(511 557) rotate(0 11.5 12)"><text x="0" y="19" font-family="Cascadia, Segoe UI Emoji" font-size="20px" fill="#000000" text-anchor="start" style="white-space: pre;" direction="ltr">no</text></g><g><g transform="translate(460 568.5) rotate(0 0 13.5)"><path d="M0 0 C0 4.5, 0 22.5, 0 27 M0 0 C0 4.5, 0 22.5, 0 27" stroke="#000000" stroke-width="2" fill="none"></path></g><g transform="translate(460 568.5) rotate(0 0 13.5)"><path d="M-4.617271934896528 14.314149619390236 C-3.444980459250459 17.53499397774695, -2.27268898360439 20.75583833610366, 0 27 M-4.617271934896528 14.314149619390236 C-3.534028675491582 17.29033601438175, -2.4507854160866365 20.266522409373266, 0 27" stroke="#000000" stroke-width="2" fill="none"></path></g><g transform="translate(460 568.5) rotate(0 0 13.5)"><path d="M4.617271934896528 14.314149619390236 C3.444980459250459 17.53499397774695, 2.27268898360439 20.75583833610366, 0 27 M4.617271934896528 14.314149619390236 C3.534028675491582 17.29033601438175, 2.4507854160866365 20.266522409373266, 0 27" stroke="#000000" stroke-width="2" fill="none"></path></g></g><g><g transform="translate(459 676.5) rotate(0 0 13)"><path d="M0 0 C0 4.333333333333333, 0 21.666666666666668, 0 26 M0 0 C0 4.333333333333333, 0 21.666666666666668, 0 26" stroke="#000000" stroke-width="2" fill="none"></path></g><g transform="translate(459 676.5) rotate(0 0 13)"><path d="M-4.446261863233693 13.78399592978319 C-3.237990646102996 17.103693815426734, -2.029719428972298 20.42339170107028, 0 26 M-4.446261863233693 13.78399592978319 C-2.912554994595979 17.997820919427767, -1.3788481259582643 22.211645909072345, 0 26" stroke="#000000" stroke-width="2" fill="none"></path></g><g transform="translate(459 676.5) rotate(0 0 13)"><path d="M4.446261863233693 13.78399592978319 C3.237990646102996 17.103693815426734, 2.029719428972298 20.42339170107028, 0 26 M4.446261863233693 13.78399592978319 C2.912554994595979 17.997820919427767, 1.3788481259582643 22.211645909072345, 0 26" stroke="#000000" stroke-width="2" fill="none"></path></g></g><g transform="translate(375 1388) rotate(0 17.5 12)"><text x="0" y="19" font-family="Cascadia, Segoe UI Emoji" font-size="20px" fill="#000000" text-anchor="start" style="white-space: pre;" direction="ltr">yes</text></g><g transform="translate(587 1261) rotate(0 11.5 12)"><text x="0" y="19" font-family="Cascadia, Segoe UI Emoji" font-size="20px" fill="#000000" text-anchor="start" style="white-space: pre;" direction="ltr">no</text></g><g transform="translate(598 1480) rotate(0 11.5 12)"><text x="0" y="19" font-family="Cascadia, Segoe UI Emoji" font-size="20px" fill="#000000" text-anchor="start" style="white-space: pre;" direction="ltr">no</text></g><g transform="translate(527 1569) rotate(0 17.5 12)"><text x="0" y="19" font-family="Cascadia, Segoe UI Emoji" font-size="20px" fill="#000000" text-anchor="start" style="white-space: pre;" direction="ltr">yes</text></g><g><g transform="translate(461 228.5) rotate(0 0 21)"><path d="M0 0 C0 7, 0 35, 0 42 M0 0 C0 7, 0 35, 0 42" stroke="#000000" stroke-width="2" fill="none"></path></g><g transform="translate(461 228.5) rotate(0 0 21)"><path d="M-7.182423009839043 22.266454963495924 C-4.6498325378670025 29.22469009796503, -2.1172420658949624 36.18292523243414, 0 42 M-7.182423009839043 22.266454963495924 C-5.276373215198269 27.50328373462757, -3.3703234205574963 32.740112505759214, 0 42" stroke="#000000" stroke-width="2" fill="none"></path></g><g transform="translate(461 228.5) rotate(0 0 21)"><path d="M7.182423009839043 22.266454963495924 C4.6498325378670025 29.22469009796503, 2.1172420658949624 36.18292523243414, 0 42 M7.182423009839043 22.266454963495924 C5.276373215198269 27.50328373462757, 3.3703234205574963 32.740112505759214, 0 42" stroke="#000000" stroke-width="2" fill="none"></path></g></g><g transform="translate(355 272.5) rotate(0 104 36.5)"><path d="M105 0 C137.56030263584108 11.696419393457473, 170.12060527168217 23.392838786914947, 208 37 M105 0 C137.69218043703586 11.743792972527444, 170.38436087407172 23.48758594505489, 208 37 M208 37 C174.56417916733773 48.68630631044507, 141.12835833467543 60.37261262089014, 105 73 M208 37 C183.16283290367573 45.68095160648227, 158.32566580735147 54.361903212964535, 105 73 M105 73 C64.33564903121442 59.05793681070209, 23.671298062428818 45.11587362140417, 0 37 M105 73 C75.59363329131156 62.91781712844968, 46.18726658262312 52.835634256899354, 0 37 M0 37 C36.85549355763942 24.012826079688963, 73.71098711527884 11.02565215937793, 105 0 M0 37 C27.52742037456483 27.299861391820013, 55.05484074912966 17.599722783640026, 105 0" stroke="#000000" stroke-width="2" fill="none"></path></g><g transform="translate(383 299) rotate(0 75 9.5)"><text x="75" y="15" font-family="Cascadia, Segoe UI Emoji" font-size="16px" fill="#000000" text-anchor="middle" style="white-space: pre;" direction="ltr">ssoLogin success</text></g><g><g transform="translate(461 344.5) rotate(0 0 14.5)"><path d="M0 0 C0 4.833333333333333, 0 24.166666666666668, 0 29 M0 0 C0 4.833333333333333, 0 24.166666666666668, 0 29" stroke="#000000" stroke-width="2" fill="none"></path></g><g transform="translate(461 344.5) rotate(0 0 14.5)"><path d="M-4.959292078222196 15.374456998604328 C-3.9551726094547304 18.13325256547771, -2.951053140687265 20.892048132351093, 0 29 M-4.959292078222196 15.374456998604328 C-3.2499802558944246 20.070752633256713, -1.5406684335666534 24.767048267909097, 0 29" stroke="#000000" stroke-width="2" fill="none"></path></g><g transform="translate(461 344.5) rotate(0 0 14.5)"><path d="M4.959292078222196 15.374456998604328 C3.9551726094547304 18.13325256547771, 2.951053140687265 20.892048132351093, 0 29 M4.959292078222196 15.374456998604328 C3.2499802558944246 20.070752633256713, 1.5406684335666534 24.767048267909097, 0 29" stroke="#000000" stroke-width="2" fill="none"></path></g></g><g transform="translate(372 341) rotate(0 14 9.5)"><text x="0" y="15" font-family="Cascadia, Segoe UI Emoji" font-size="16px" fill="#000000" text-anchor="start" style="white-space: pre;" direction="ltr">yes</text></g><g><g transform="translate(563 309.5) rotate(0 23.5 0)"><path d="M0 0 C7.833333333333333 0, 39.166666666666664 0, 47 0 M0 0 C7.833333333333333 0, 39.166666666666664 0, 47 0" stroke="#000000" stroke-width="2" fill="none"></path></g><g transform="translate(563 309.5) rotate(0 23.5 0)"><path d="M24.91722341153115 8.037473368153215 C30.187783452327373 6.11914639539053, 35.45834349312359 4.200819422627844, 47 0 M24.91722341153115 8.037473368153215 C30.95590431995323 5.8395732632559865, 36.994585228375314 3.641673158358758, 47 0" stroke="#000000" stroke-width="2" fill="none"></path></g><g transform="translate(563 309.5) rotate(0 23.5 0)"><path d="M24.91722341153115 -8.037473368153215 C30.187783452327373 -6.11914639539053, 35.45834349312359 -4.200819422627844, 47 0 M24.91722341153115 -8.037473368153215 C30.95590431995323 -5.8395732632559865, 36.994585228375314 -3.641673158358758, 47 0" stroke="#000000" stroke-width="2" fill="none"></path></g></g><g transform="translate(563 277) rotate(0 9.5 9.5)"><text x="0" y="15" font-family="Cascadia, Segoe UI Emoji" font-size="16px" fill="#000000" text-anchor="start" style="white-space: pre;" direction="ltr">no</text></g><g transform="translate(638 297) rotate(0 37.5 9.5)"><text x="0" y="15" font-family="Cascadia, Segoe UI Emoji" font-size="16px" fill="#000000" text-anchor="start" style="white-space: pre;" direction="ltr">SSO Fail</text></g></svg>